<?xml version="1.0" encoding="UTF-8"?>
<svg id="Layer_2" data-name="Layer 2" xmlns="http://www.w3.org/2000/svg" xmlns:xlink="http://www.w3.org/1999/xlink" viewBox="0 0 132.84 68.4">
  <defs>
    <style>
      .cls-1 {
        fill: #fff;
      }

      .cls-2 {
        fill: #c20e21;
      }

      .cls-3 {
        fill: url(#linear-gradient);
      }
    </style>
    <linearGradient id="linear-gradient" x1="106.88" y1="1165.89" x2="123.52" y2="1165.89" gradientTransform="translate(-77.94 -1122.91)" gradientUnits="userSpaceOnUse">
      <stop offset="0" stop-color="#7b1418"/>
      <stop offset="1" stop-color="#ce242a"/>
    </linearGradient>
  </defs>
  <g id="Layer_2-2" data-name="Layer 2">
    <path d="M59.13,60.04h-1.63l-.68,1.26h-.58l2.27-4.07h.55l.82,4.07h-.54s-.21-1.26-.21-1.26ZM59.04,59.59l-.34-1.76-1,1.76h1.34Z"/>
    <path d="M64.78,60.81c.07.05.16.07.24.06l-.09.46c-.19,0-.39-.03-.56-.11-.12-.08-.19-.22-.19-.36-.11.16-.27.29-.45.37-.18.09-.37.13-.57.13-.23,0-.46-.06-.66-.18-.19-.12-.35-.28-.45-.48-.11-.22-.16-.46-.16-.71,0-.29.07-.58.21-.83.13-.24.32-.45.55-.59.24-.14.51-.21.78-.21.22,0,.45.05.64.16.18.1.33.25.41.44l.35-2h.5l-.61,3.51v.14c-.02.07,0,.15.06.2ZM63.83,60.74c.17-.09.3-.22.4-.38l.16-.87c-.11-.41-.5-.68-.92-.66-.19,0-.38.05-.54.15-.17.1-.3.24-.39.41s-.13.37-.13.56c0,.25.08.49.24.68.16.17.39.27.63.26.19,0,.38-.05.55-.15Z"/>
    <path d="M66.06,58.42h.51l-.51,2.88h-.51l.51-2.88ZM66.2,57.73c-.06-.06-.1-.15-.1-.24,0-.19.14-.34.33-.35h.02c.09,0,.18.03.24.1.07.06.11.16.1.25,0,.19-.15.34-.34.34-.08,0-.15-.04-.21-.1h-.04Z"/>
    <path d="M69.85,58.42c-.13.57-.35,1.11-.64,1.62-.26.46-.57.88-.94,1.26h-.51l-.65-2.88h.53l.48,2.39c.29-.31.54-.67.73-1.05.22-.42.38-.87.46-1.34,0,0,.54,0,.54,0Z"/>
    <path d="M70.56,58.42h.5l-.51,2.88h-.49l.5-2.88ZM70.71,57.73c-.07-.06-.1-.15-.1-.24s.03-.19.1-.25c.06-.07.15-.1.24-.1s.18.03.25.1c.07.06.11.16.1.25,0,.09-.03.18-.1.24-.07.07-.16.1-.25.1s-.18-.04-.24-.1Z"/>
    <path d="M71.45,60.9l.3-.33c.11.11.24.21.38.27.15.07.31.11.48.1.14,0,.27-.03.39-.11.1-.06.15-.17.15-.29s-.05-.23-.14-.3c-.14-.09-.29-.17-.45-.23-.22-.08-.42-.19-.6-.34-.13-.12-.2-.3-.19-.48,0-.24.11-.47.3-.61.56-.35,1.29-.28,1.77.17l-.32.34c-.09-.1-.2-.18-.32-.23-.12-.06-.25-.09-.38-.09s-.27.02-.39.08c-.1.05-.16.16-.15.27,0,.1.05.19.13.25.15.11.32.2.5.26.21.09.4.2.57.35.13.14.19.32.18.51,0,.25-.11.48-.3.63-.23.17-.51.25-.79.24-.42.02-.83-.15-1.12-.46Z"/>
    <path d="M74.74,58.42h.51l-.51,2.88h-.5l.5-2.88ZM74.89,57.73c-.07-.06-.1-.15-.1-.24s.03-.19.1-.25c.06-.07.15-.1.24-.1.19,0,.34.14.35.33v.02c0,.09-.03.18-.1.24-.06.07-.16.11-.25.1-.09,0-.18-.04-.24-.1h0Z"/>
    <path d="M76.42,61.18c-.21-.11-.38-.28-.5-.48-.12-.22-.19-.48-.18-.73,0-.27.06-.55.19-.79.14-.25.34-.45.58-.59.27-.16.58-.24.9-.23.26,0,.51.05.74.17.21.11.38.28.49.48.12.21.18.45.18.7,0,.28-.07.56-.2.81s-.33.46-.57.61c-.27.16-.58.24-.9.23-.25,0-.51-.06-.73-.18ZM77.78,60.72c.16-.1.29-.24.37-.41.09-.17.13-.37.13-.56.02-.24-.06-.47-.22-.65-.18-.17-.42-.25-.67-.24-.21,0-.42.04-.6.16-.16.1-.29.24-.37.41s-.12.35-.12.53c0,.25.08.49.25.68.18.18.43.27.68.26.2,0,.39-.07.55-.18Z"/>
    <path d="M82.06,58.59c.17.18.26.42.24.66.01.11.01.23,0,.34l-.3,1.71h-.51l.29-1.63v-.24c.01-.17-.05-.34-.16-.46-.13-.11-.29-.16-.46-.15-.39.02-.76.2-1,.51l-.34,2h-.51l.51-2.88h.51l-.08.43c.29-.31.7-.49,1.12-.49.25-.02.49.05.69.2Z"/>
    <path d="M85.06,61.18c-.21-.11-.38-.28-.5-.48-.12-.22-.19-.48-.18-.73,0-.28.07-.55.2-.79s.33-.45.57-.59c.27-.16.58-.24.9-.23.26,0,.51.05.74.17.21.11.38.27.49.48.12.21.18.45.18.7,0,.28-.07.56-.2.81s-.33.46-.57.61c-.27.16-.58.24-.9.23-.25,0-.51-.06-.73-.18ZM86.42,60.72c.17-.09.3-.24.38-.41.08-.17.13-.37.13-.56.01-.25-.08-.49-.26-.67-.18-.17-.42-.25-.67-.24-.42-.04-.82.19-1,.57-.08.17-.12.35-.12.53,0,.25.08.5.26.68s.42.27.67.26c.2,0,.41-.05.58-.16,0,0,.03,0,.03,0Z"/>
    <path d="M90.25,57l-.09.47h-.29c-.36-.02-.68.25-.7.62v.33h.86l-.08.43h-.89l-.43,2.44h-.5l.42-2.44h-.65l.08-.43h.65l.06-.36c.04-.63.58-1.1,1.21-1.06h.35Z"/>
    <path d="M92.06,61.16c-.15-.15-.23-.35-.21-.56v-.35l.25-1.4h-.62l.08-.43h.61l.16-.87h.5l-.15.87h.91l-.08.43h-.91l-.24,1.36v.23c-.03.21.11.4.32.43h.48l-.08.47h-.38c-.23,0-.45-.05-.64-.18Z"/>
    <path d="M96.4,58.61c.16.19.24.44.22.69.01.13.01.27,0,.4l-.28,1.6h-.51l.28-1.55v-.36c.01-.15-.03-.31-.13-.43-.12-.11-.29-.17-.45-.15-.18,0-.36.05-.52.14-.17.1-.32.24-.44.39l-.35,2h-.51l.76-4.31h.5l-.32,1.83c.28-.3.66-.46,1.07-.46.25-.03.49.05.68.21Z"/>
    <path d="M97.75,59.92v.05c-.02.26.08.51.26.7.19.16.44.25.69.24.36,0,.71-.1,1-.32l.16.38c-.34.26-.77.4-1.2.39-.25,0-.5-.06-.72-.17-.2-.11-.37-.27-.48-.47-.12-.21-.18-.46-.17-.7,0-.29.06-.58.2-.84.12-.25.32-.45.55-.6.24-.15.52-.23.81-.22.34-.02.66.11.9.35.23.25.35.59.34.93v.28h-2.34ZM98.18,58.99c-.17.15-.3.34-.36.56h1.72c0-.21-.08-.41-.22-.56s-.34-.22-.55-.21c-.22,0-.42.07-.59.21h0Z"/>
    <path d="M59.11,67.35h-1.49l-.33.95h-.77l1.45-3.91h.83l1.45,3.91h-.81s-.33-.95-.33-.95ZM58.9,66.74l-.53-1.53-.54,1.53h1.07Z"/>
    <path d="M64.95,65.76c.18.25.27.56.25.87v1.67h-.71v-1.57c.01-.17-.03-.33-.13-.47-.09-.11-.23-.18-.38-.17-.28,0-.53.16-.67.4v1.81h-.7v-1.63c0-.15-.04-.3-.14-.42-.11-.11-.26-.17-.41-.15-.28,0-.53.16-.67.4v1.81h-.71v-2.78h.71v.37c.21-.28.54-.44.89-.43.19-.01.38.03.55.13.15.09.27.22.34.38.12-.15.27-.27.43-.37.17-.1.37-.15.57-.14.29-.03.58.08.78.29Z"/>
    <path d="M68.57,67.1h-2.08c.01.2.11.38.26.5.16.13.36.19.57.18.16,0,.33-.03.48-.08.13-.04.25-.1.36-.18l.26.5c-.33.24-.73.36-1.14.35-.28,0-.56-.06-.81-.18-.22-.12-.4-.3-.52-.52-.24-.47-.24-1.02,0-1.49.12-.21.3-.39.51-.51.23-.13.49-.2.75-.19.25,0,.5.06.71.19.21.12.38.31.48.53.12.25.18.52.17.8v.1h0ZM67.85,66.62c-.02-.16-.09-.31-.21-.43-.12-.11-.27-.17-.43-.16-.17,0-.33.05-.46.16s-.22.26-.24.43h1.34Z"/>
    <path d="M70.81,65.51v.69h-.26c-.14,0-.28.02-.41.09-.11.07-.2.16-.26.28v1.73h-.7v-2.78h.7v.44c.06-.14.16-.26.29-.35.13-.07.28-.1.43-.1,0,0,.21,0,.21,0Z"/>
    <path d="M71.33,64.97c-.08-.08-.13-.19-.13-.3,0-.12.05-.23.13-.31s.19-.13.3-.13c.12,0,.23.05.31.13s.12.2.12.31-.04.22-.12.3c-.08.09-.19.13-.31.13-.11,0-.22-.04-.3-.13ZM71.28,65.52h.7v2.78h-.7v-2.78Z"/>
    <path d="M73.31,68.17c-.22-.12-.4-.29-.53-.51s-.2-.48-.19-.74c0-.27.06-.53.19-.76.12-.22.31-.39.53-.51.23-.13.49-.2.76-.19.35-.01.7.09,1,.28l-.29.56c-.18-.13-.4-.2-.63-.2-.22-.01-.43.07-.59.22-.14.16-.22.37-.21.59-.01.22.07.43.22.58.15.16.36.24.58.23.23,0,.46-.07.65-.2l.27.55c-.14.09-.28.17-.44.22-.18.04-.36.06-.55.06-.27,0-.53-.06-.77-.18Z"/>
    <path d="M78.42,67.63c.08.05.18.07.27.06v.64h-.06c-.53,0-.83-.14-.9-.43-.11.15-.26.26-.43.34-.17.08-.36.12-.55.11-.25,0-.5-.06-.72-.18-.21-.12-.38-.3-.5-.52-.23-.47-.23-1.02,0-1.49.11-.22.29-.39.5-.51.22-.13.47-.2.72-.19.32-.01.64.11.87.34v-.28h.71v1.89c0,.08.03.16.09.22ZM77.62,66.51c-.07-.13-.17-.23-.3-.3-.14-.07-.3-.1-.46-.1-.21,0-.41.07-.56.22-.14.15-.22.36-.21.57,0,.22.07.43.21.59.15.14.35.22.55.21.16,0,.32-.03.46-.11.13-.06.24-.17.31-.3,0,0,0-.78,0-.78Z"/>
    <path d="M81.65,65.76c.2.25.29.56.27.87v1.67h-.71v-1.57c.01-.17-.04-.34-.15-.47-.12-.12-.28-.18-.44-.17-.29,0-.57.16-.73.4v1.81h-.7v-2.78h.7v.38c.24-.3.61-.47,1-.44.28-.01.56.1.76.3Z"/>
    <path d="M87.23,64.39v3.91h-.77v-1.62h-1.74v1.62h-.76v-3.91h.76v1.62h1.74v-1.62h.77Z"/>
    <path d="M90.7,67.1h-2.08c.01.2.11.38.26.5.16.13.36.19.57.18.16,0,.33-.03.48-.08.13-.04.25-.1.36-.18l.26.5c-.33.24-.73.37-1.14.35-.28,0-.55-.05-.8-.18-.22-.12-.41-.3-.53-.52-.12-.23-.18-.48-.18-.74s.06-.52.19-.75c.12-.22.29-.39.51-.51.22-.13.48-.2.74-.19.25,0,.5.06.72.19.21.13.37.31.47.53.12.25.18.52.17.8,0,0,0,.1,0,.1ZM89.98,66.62c-.01-.17-.09-.32-.21-.43-.11-.11-.27-.17-.43-.16-.17,0-.33.05-.46.16s-.21.26-.24.43h1.34Z"/>
    <path d="M94.16,67.63c.08.05.18.07.27.06v.64h-.06c-.52,0-.83-.14-.9-.43-.11.15-.26.26-.43.34-.17.08-.36.12-.55.11-.25,0-.5-.06-.72-.18-.21-.13-.38-.31-.5-.52-.23-.47-.23-1.02,0-1.49.12-.21.29-.39.5-.51.22-.13.47-.2.72-.19.32-.01.64.11.87.34v-.28h.7v1.89c0,.08.03.17.1.22ZM93.36,66.51c-.07-.13-.17-.23-.3-.3-.14-.07-.3-.1-.46-.1-.21,0-.41.07-.56.22-.14.15-.22.36-.21.57,0,.22.07.43.21.59.15.14.35.22.55.21.16,0,.32-.03.46-.11.13-.06.24-.17.31-.3,0,0,0-.78,0-.78Z"/>
    <path d="M96.56,65.51v.69h-.26c-.14,0-.28.02-.41.09-.11.07-.2.16-.26.28v1.73h-.7v-2.78h.7v.44c.06-.14.17-.26.3-.35.13-.07.28-.11.43-.1,0,0,.2,0,.2,0Z"/>
    <path d="M97.63,68.1c-.21-.22-.31-.53-.28-.83v-1.17h-.58v-.59h.58v-.86h.71v.86h.8v.59h-.8v1c-.01.15.03.31.12.43.09.09.21.13.34.12h.34v.64h-.38c-.3.05-.6-.02-.85-.19Z"/>
    <path d="M102.88,67.35h-1.48l-.33.95h-.77l1.45-3.91h.83l1.48,3.91h-.81l-.37-.95ZM102.68,66.74l-.54-1.53-.53,1.53h1.07Z"/>
    <path d="M104.7,68.24c-.19-.08-.36-.2-.5-.35l.39-.43c.1.11.21.19.34.26.13.06.27.09.41.09.11,0,.22-.02.32-.07.07-.03.12-.11.12-.19,0-.09-.05-.18-.13-.22-.15-.08-.31-.14-.47-.18-.23-.06-.44-.17-.63-.32-.15-.15-.22-.35-.21-.55-.01-.24.1-.46.29-.6.22-.16.5-.23.77-.22.2,0,.41.03.6.1.16.06.3.16.41.29l-.45.41c-.05-.09-.13-.15-.22-.19-.11-.06-.23-.08-.35-.08-.09,0-.19.02-.27.06-.06.04-.1.11-.1.18,0,.05.02.1.06.14.06.04.12.08.19.11l.39.14c.22.06.43.17.6.32.14.14.22.33.21.53,0,.25-.1.49-.3.64-.24.17-.53.26-.83.24-.22,0-.44-.03-.64-.11h0Z"/>
    <path d="M107.29,68.24c-.19-.08-.36-.2-.5-.35l.4-.43c.09.11.2.2.33.26.13.06.27.09.41.09.11,0,.22-.02.32-.07.07-.03.12-.11.12-.19,0-.09-.05-.18-.13-.22-.15-.08-.31-.14-.47-.18-.23-.06-.44-.17-.63-.32-.3-.32-.28-.82.04-1.12.01-.01.03-.02.04-.03.23-.16.5-.23.77-.22.2,0,.41.03.6.1.16.06.3.16.41.29l-.44.41c-.06-.09-.14-.15-.23-.19-.11-.06-.23-.08-.35-.08-.09,0-.19.02-.27.06-.06.04-.09.11-.09.18,0,.05.02.1.05.14.06.04.12.08.19.11l.39.14c.23.06.43.17.61.32.14.14.21.33.2.53,0,.25-.1.49-.3.64-.24.17-.53.26-.83.24-.22,0-.44-.03-.64-.11h0Z"/>
    <path d="M110.19,68.17c-.46-.25-.74-.74-.73-1.26,0-.26.06-.52.19-.75.13-.22.32-.39.54-.51.49-.25,1.08-.25,1.57,0,.22.12.41.29.54.51.25.46.25,1.03,0,1.49-.13.22-.32.4-.54.52-.5.24-1.07.24-1.57,0h0ZM111.54,67.48c.15-.15.23-.36.22-.58.01-.21-.07-.42-.22-.57s-.35-.23-.56-.22c-.21-.01-.42.07-.57.22s-.23.36-.22.57c-.03.41.27.77.68.8h.11c.21.01.41-.07.56-.22h0Z"/>
    <path d="M113.65,68.17c-.22-.11-.41-.29-.53-.51-.13-.22-.2-.48-.2-.74s.06-.53.19-.76c.12-.22.31-.39.53-.51.23-.13.49-.19.76-.19.35-.01.7.09,1,.28l-.29.56c-.18-.13-.4-.2-.63-.2-.22-.01-.43.07-.58.22-.15.16-.23.37-.22.59-.02.42.3.79.73.81h.07c.23,0,.46-.07.65-.2l.28.55c-.14.09-.29.16-.45.22-.18.04-.36.06-.54.06-.27,0-.53-.05-.77-.18h0Z"/>
    <path d="M115.99,64.97c-.08-.08-.12-.19-.12-.3s.04-.23.12-.31c.08-.08.19-.13.31-.13.24,0,.43.2.43.44s-.19.42-.43.43c-.12,0-.23-.05-.31-.13ZM115.94,65.52h.71v2.78h-.71v-2.78Z"/>
    <path d="M120.32,67.63c.08.05.18.07.27.06v.64h-.06c-.53,0-.83-.14-.9-.43-.11.15-.26.26-.43.34-.17.08-.36.12-.55.11-.25,0-.5-.06-.72-.18-.21-.12-.38-.3-.5-.52-.23-.47-.23-1.02,0-1.49.11-.22.29-.39.5-.51.22-.13.47-.2.72-.19.32-.01.64.11.87.34v-.28h.71v1.89c0,.08.03.16.09.22ZM119.52,66.51c-.07-.13-.17-.23-.3-.3-.14-.07-.3-.1-.46-.1-.21,0-.41.07-.56.22-.14.15-.22.36-.21.57,0,.22.07.43.21.59.15.14.35.22.55.21.16,0,.32-.03.46-.11.13-.06.24-.17.31-.3,0,0,0-.78,0-.78Z"/>
    <path d="M121.62,68.1c-.2-.23-.3-.53-.28-.83v-1.17h-.58v-.59h.58v-.86h.72v.86h.81v.59h-.81v1c-.01.15.03.31.12.43.09.09.21.13.34.12h.35v.64h-.38c-.3.05-.62-.02-.87-.19Z"/>
    <path d="M123.45,64.97c-.08-.08-.13-.19-.13-.3,0-.12.05-.23.13-.31s.19-.13.3-.13c.12,0,.23.05.31.13s.12.2.12.31-.04.22-.12.3c-.08.09-.19.13-.31.13-.11,0-.22-.04-.3-.13ZM123.45,65.52h.7v2.78h-.7v-2.78Z"/>
    <path d="M125.44,68.17c-.46-.25-.74-.74-.73-1.26,0-.26.06-.52.19-.75.13-.22.32-.39.54-.51.49-.25,1.08-.25,1.57,0,.22.12.41.29.54.51.25.46.25,1.03,0,1.49-.13.22-.32.4-.54.52-.5.24-1.07.24-1.57,0h0ZM126.79,67.48c.15-.15.23-.36.22-.58.01-.21-.07-.42-.22-.57s-.35-.23-.56-.22c-.21-.01-.42.07-.57.22s-.23.36-.22.57c-.03.41.27.77.68.8h.11c.21.01.41-.07.56-.22h0Z"/>
    <path d="M130.81,65.76c.2.25.29.56.27.87v1.67h-.71v-1.57c0-.17-.04-.34-.15-.47-.11-.12-.27-.18-.43-.17-.29,0-.57.16-.73.4v1.81h-.7v-2.78h.7v.38c.23-.29.58-.45.95-.44.3-.02.59.09.8.3h0Z"/>
    <path d="M57.44,42.3c-.45-.17-.87-.43-1.22-.76l.78-1.1c.25.26.54.46.87.61.34.16.71.25,1.09.25.31.02.61-.06.87-.22.2-.14.32-.37.31-.62,0-.15-.05-.3-.15-.41-.13-.13-.29-.24-.46-.31-.2-.09-.52-.22-.95-.37-.37-.11-.72-.27-1.05-.46-.28-.15-.52-.38-.69-.65-.18-.3-.27-.65-.26-1-.02-.82.47-1.56,1.22-1.88.42-.18.88-.27,1.34-.26.44,0,.89.08,1.3.24.37.13.71.34,1,.61l-.76,1.06c-.21-.21-.45-.37-.72-.49-.27-.12-.56-.18-.86-.18-.28,0-.57.06-.81.2-.2.12-.31.33-.3.56,0,.14.05.29.15.39.13.14.28.25.46.31.31.14.63.26.95.36.38.13.74.29,1.09.48.28.15.51.37.67.64.17.3.26.65.25,1,0,.41-.1.82-.33,1.17-.24.34-.56.6-.94.77-.43.19-.9.28-1.37.27-.5.02-1-.06-1.48-.21Z"/>
    <path d="M63.62,42.01c-.38-.42-.56-.99-.51-1.55v-2.06h-1.05v-1.1h1.08v-1.58h1.31v1.58h1.48v1.1h-1.48v1.88c-.03.28.05.56.22.79.16.17.39.26.62.24h.64v1.17h-.7c-.58.05-1.15-.11-1.61-.47h0Z"/>
    <path d="M69.91,37.29v1.28h-.48c-.26,0-.52.05-.76.16-.21.12-.37.31-.48.52v3.19h-1.29v-5.14h1.29v.8c.11-.27.3-.49.55-.64.24-.13.51-.2.79-.19,0,0,.38.02.38.02Z"/>
    <path d="M71.55,42.2c-.42-.23-.77-.58-1-1-.24-.41-.37-.89-.36-1.37,0-.48.12-.96.36-1.38.24-.4.58-.73,1-.95.45-.23.95-.35,1.46-.34.5,0,1,.11,1.45.34.42.22.76.55,1,.95.24.42.36.9.35,1.38.01.48-.11.95-.35,1.37-.23.42-.58.77-1,1-.45.24-.94.36-1.45.35-.51,0-1.01-.11-1.46-.35ZM74.06,40.93c.27-.29.41-.68.39-1.07.02-.39-.12-.77-.39-1.06-.28-.27-.66-.42-1.05-.4-.37,0-.73.14-1,.4-.55.61-.55,1.53,0,2.14.27.26.63.41,1,.41.39.02.78-.14,1.05-.42Z"/>
    <path d="M81.61,41.33v1.17h-.5c-.29,0-.59-.04-.86-.15-.22-.1-.42-.24-.59-.42-.16-.19-.39-.48-.67-.87l-.47-.66h-.28v2h-1.3v-7.6h1.3v4.58h.12l1.7-2.08h1.56l-2,2.49.4.52c.2.3.45.56.73.78.22.16.49.25.77.24,0,0,.09,0,.09,0Z"/>
    <path d="M87.22,40.2h-3.84c.02.36.19.69.47.92.3.23.68.35,1.06.33.3,0,.6-.05.88-.14.24-.08.47-.2.68-.35l.48.93c-.61.45-1.36.68-2.12.66-.52,0-1.02-.11-1.48-.35-.43-.23-.77-.57-1-1-.22-.42-.34-.89-.33-1.37,0-.48.11-.96.34-1.38.22-.4.54-.73.94-.95.42-.23.9-.35,1.38-.34.46,0,.92.11,1.32.34.39.24.69.59.88,1,.22.46.32.96.31,1.47l.03.23h0ZM85.89,39.3c-.03-.3-.17-.59-.39-.8-.22-.19-.5-.29-.79-.28-.31,0-.61.09-.85.28-.24.21-.4.49-.45.8,0,0,2.48,0,2.48,0Z"/>
    <path class="cls-1" d="M29.61,57.75c-1.19-14.92-.3-23.5-.3-23.5-.12-.94-2.32-1.42-4.91-1.08s-4.59,1.38-4.46,2.32h0c2.63,8.22,4.65,16.62,6.05,25.14,1.28-1.01,2.49-1.96,3.62-2.88Z"/>
    <path d="M115.45,52.52c-.37.35-.95.34-1.3-.02-.17-.17-.26-.4-.26-.64s.1-.5.29-.67c.17-.16.4-.25.63-.25s.47.1.64.27c.36.36.36.95,0,1.31M114.27,51.33c-.3.3-.3.78,0,1.07.3.3.78.3,1.07,0s.3-.78,0-1.07h0c-.14-.15-.33-.23-.53-.23s-.4.08-.54.23M114.4,52.33v-1h.5c.07,0,.14.02.2.05.09.05.14.14.13.24,0,.07-.02.14-.07.19-.05.03-.11.06-.17.06l.14.06c.06.06.1.14.09.23v.12h-.26v-.27s-.04-.06-.07-.07h-.21v.36s-.28.03-.28.03ZM114.89,51.51h-.22v.3h.1s.1.02.15,0c.02-.04.02-.08,0-.12,0-.05-.03-.1-.08-.12"/>
    <path d="M60.96,30.8h-2.79l-.63,1.78h-1.48l2.72-7.35h1.56l2.72,7.35h-1.52s-.58-1.78-.58-1.78ZM60.57,29.65l-1-2.88-1,2.88s2,0,2,0Z"/>
    <path d="M71.73,27.79c.35.47.53,1.06.49,1.65v3.14h-1.34v-3c.02-.31-.07-.63-.25-.88-.18-.21-.44-.33-.72-.31-.52,0-1,.29-1.26.74v3.41h-1.32v-3.07c.01-.29-.08-.57-.26-.79-.18-.2-.44-.31-.71-.29-.53.01-1.01.29-1.27.75v3.4h-1.32v-5.24h1.29v.7c.4-.53,1.02-.83,1.68-.82.35,0,.69.08,1,.25.28.17.51.43.64.73.22-.29.49-.53.8-.71.32-.19.7-.28,1.07-.27.56-.05,1.12.18,1.48.61Z"/>
    <path d="M78.33,30.29h-3.91c.03.36.2.7.48.94.31.23.69.35,1.08.33.31,0,.61-.05.9-.14.25-.08.48-.2.69-.35l.48.94c-.62.46-1.38.69-2.15.67-.52,0-1.04-.11-1.51-.35-.42-.23-.77-.58-1-1-.23-.43-.34-.91-.34-1.4s.11-.98.35-1.41c.23-.42.58-.77,1-1,.43-.24.91-.37,1.4-.36.48-.01.94.11,1.35.36.39.23.71.58.9,1,.22.47.32.98.31,1.5,0,0-.03.27-.03.27ZM76.98,29.38c-.03-.31-.17-.6-.4-.82-.22-.2-.51-.3-.81-.29-.66-.02-1.23.46-1.32,1.11h2.53Z"/>
    <path d="M82.55,27.33v1.3h-.49c-.27,0-.54.05-.78.17-.21.13-.38.31-.48.53v3.25h-1.32v-5.24h1.32v.84c.11-.27.31-.51.56-.66.24-.13.52-.2.8-.19,0,0,.39,0,.39,0Z"/>
    <path d="M83.52,26.32c-.15-.16-.23-.36-.23-.58s.08-.42.23-.58c.15-.15.36-.24.58-.23.21,0,.42.07.57.23.16.15.24.36.24.58s-.08.43-.24.58c-.15.15-.36.23-.57.23s-.42-.08-.58-.23ZM83.43,27.32h1.32v5.24h-1.32s0-5.24,0-5.24Z"/>
    <path d="M86.93,32.34c-.42-.24-.76-.58-1-1-.24-.43-.37-.91-.36-1.4-.01-.5.11-.99.36-1.43.23-.42.58-.77,1-1,.44-.24.94-.36,1.44-.35.65,0,1.29.18,1.84.53l-.55,1.05c-.34-.24-.76-.37-1.18-.37-.41-.02-.8.13-1.1.41-.55.63-.55,1.58,0,2.21.29.29.69.44,1.1.42.43,0,.86-.12,1.22-.36l.52,1c-.26.18-.54.31-.84.41-.32.09-.66.14-1,.13-.5.04-.99-.05-1.45-.25Z"/>
    <path d="M96.54,31.31c.15.1.33.14.51.13v1.19h-.11c-1,0-1.55-.27-1.7-.8-.21.27-.49.49-.8.63-.31.15-.65.22-1,.22-.48,0-.95-.12-1.36-.35-.4-.24-.72-.59-.93-1-.44-.89-.44-1.92,0-2.81.21-.42.53-.76.93-1,.41-.23.88-.36,1.36-.35.62-.02,1.21.22,1.65.65v-.54h1.32v3.56c-.05.17,0,.35.13.47ZM95.05,29.21c-.14-.24-.34-.43-.58-.56-.27-.13-.56-.2-.86-.19-.39-.02-.77.13-1.05.41-.53.62-.53,1.55,0,2.17.26.27.62.42,1,.42.3,0,.59-.07.86-.21.25-.13.45-.33.59-.57,0,0,.04-1.47.04-1.47Z"/>
    <path d="M102.62,27.79c.37.47.55,1.06.51,1.65v3.14h-1.33v-3c.02-.32-.08-.64-.29-.88-.21-.22-.51-.34-.81-.31-.56,0-1.07.28-1.38.75v3.4h-1.32v-5.24h1.32v.8c.43-.54,1.1-.85,1.79-.83.55-.05,1.11.14,1.51.52Z"/>
    <path d="M60.74,50.8h-2.79l-.62,1.78h-1.45l2.72-7.35h1.56l2.73,7.35h-1.53s-.62-1.78-.62-1.78ZM60.35,49.65l-1-2.88-1,2.88h2Z"/>
    <path d="M64.16,52.48c-.36-.15-.68-.38-.94-.67l.74-.8c.18.2.39.36.63.48.24.11.5.17.77.17.21,0,.42-.03.61-.13.14-.07.22-.21.22-.37,0-.17-.09-.32-.24-.39-.28-.15-.58-.26-.89-.35-.43-.12-.83-.33-1.18-.61-.56-.6-.53-1.53.07-2.09.03-.02.05-.05.08-.07.42-.3.93-.44,1.45-.42.38,0,.76.06,1.12.19.3.11.57.3.78.54l-.84.78c-.1-.16-.25-.28-.42-.36-.21-.1-.43-.15-.66-.15-.18,0-.36.03-.51.12-.11.07-.18.2-.18.33,0,.1.04.19.11.26.1.09.22.16.35.21.15.07.4.15.74.26.42.11.81.32,1.13.61.26.26.41.63.39,1,.01.47-.2.91-.57,1.2-.45.33-1,.49-1.56.46-.41,0-.82-.06-1.2-.2Z"/>
    <path d="M69.06,52.48c-.36-.15-.69-.38-.95-.67l.75-.8c.35.41.86.65,1.4.65.21,0,.42-.03.61-.13.14-.07.22-.21.22-.37,0-.17-.09-.32-.24-.39-.28-.15-.58-.26-.89-.35-.43-.12-.84-.32-1.18-.61-.56-.57-.55-1.49.02-2.05.04-.04.08-.08.13-.11.42-.3.93-.44,1.45-.42.38,0,.76.06,1.11.19.3.12.57.3.79.54l-.84.78c-.1-.16-.25-.28-.42-.36-.21-.1-.43-.15-.66-.15-.18,0-.36.03-.51.12-.11.07-.18.2-.18.33,0,.1.04.19.11.26.1.09.21.16.34.21.16.07.41.15.75.26.42.12.8.33,1.13.61.26.26.41.63.39,1,.01.47-.2.91-.57,1.2-.45.33-1,.49-1.56.46-.41,0-.82-.06-1.2-.2Z"/>
    <path d="M74.49,52.33c-.42-.23-.77-.58-1-1-.24-.43-.37-.91-.36-1.4,0-.49.12-.98.36-1.41.23-.42.58-.77,1-1,.46-.24.97-.36,1.48-.35.51,0,1.02.11,1.48.35.42.23.77.58,1,1,.24.43.37.92.36,1.41,0,.49-.12.97-.36,1.4-.23.42-.58.77-1,1-.45.25-.96.37-1.48.36-.52,0-1.03-.11-1.48-.36ZM77.04,51.04c.28-.29.42-.69.4-1.09.06-.77-.52-1.43-1.28-1.49h-.19c-.4-.02-.79.14-1.07.42-.28.29-.42.67-.41,1.07-.02.41.13.81.42,1.1.28.28.66.43,1.06.41.41.02.8-.13,1.09-.42,0,0-.02,0-.02,0Z"/>
    <path d="M80.78,52.34c-.42-.23-.77-.58-1-1-.24-.43-.37-.92-.36-1.41,0-.5.11-.99.36-1.43.23-.42.58-.77,1-1,.44-.24.93-.36,1.43-.35.66,0,1.3.18,1.85.53l-.55,1c-.34-.24-.76-.37-1.18-.37-.41-.02-.81.13-1.11.42-.27.3-.42.69-.4,1.1-.02.41.13.81.41,1.11.3.28.69.43,1.1.42.43,0,.86-.13,1.22-.37l.52,1c-.27.17-.55.31-.85.41-.33.09-.66.13-1,.13-.49.06-.98,0-1.44-.19Z"/>
    <path d="M85.31,46.43c-.15-.15-.23-.36-.23-.57s.08-.42.23-.58c.15-.16.36-.24.58-.24s.42.08.57.24c.15.15.24.36.23.58,0,.21-.07.42-.23.57-.15.16-.35.24-.57.24s-.43-.08-.58-.24ZM85.21,47.43h1.33v5.24h-1.33v-5.24Z"/>
    <path d="M93.12,51.32c.15.09.33.13.51.12v1.19h-.11c-1,0-1.56-.26-1.7-.79-.22.27-.49.48-.8.63-.32.14-.66.22-1,.22-.48,0-.95-.12-1.36-.36-.4-.24-.72-.58-.93-1-.23-.43-.34-.91-.33-1.4,0-.49.11-.97.33-1.41.21-.42.53-.76.93-1,.41-.24.88-.36,1.36-.35.61-.03,1.21.21,1.64.64v-.54h1.33v3.57c-.05.17,0,.36.13.48ZM91.62,49.22c-.13-.24-.33-.43-.57-.56-.27-.14-.57-.21-.87-.2-.38,0-.74.15-1,.42-.28.29-.42.67-.41,1.07-.02.4.13.8.4,1.1.26.27.62.41,1,.41.3,0,.59-.07.86-.21.25-.12.46-.32.59-.56,0,0,0-1.47,0-1.47Z"/>
    <path d="M95.36,52.1c-.39-.43-.58-1-.53-1.58v-2.1h-1.1v-1.12h1.1v-1.6h1.34v1.6h1.51v1.12h-1.51v1.92c-.03.28.05.57.22.8.17.17.4.26.64.24h.65v1.2h-.72c-.57.04-1.14-.13-1.6-.48Z"/>
    <path d="M98.96,46.49c-.16-.15-.24-.36-.24-.58s.08-.43.24-.58c.15-.16.36-.24.57-.23.22,0,.43.08.58.23.15.16.23.36.23.58.01.44-.33.8-.77.81h-.04c-.21,0-.42-.08-.57-.23ZM98.86,47.49h1.32v5.24h-1.32v-5.24Z"/>
    <path d="M102.54,52.33c-.42-.23-.77-.58-1-1-.24-.43-.37-.91-.36-1.4,0-.49.12-.98.36-1.41.23-.42.58-.77,1-1,.46-.24.97-.36,1.49-.35.51,0,1.02.11,1.47.35.42.23.77.58,1,1,.24.43.37.92.36,1.41,0,.49-.12.97-.36,1.4-.23.42-.58.77-1,1-.45.24-.96.37-1.47.36-.52,0-1.03-.11-1.49-.36ZM105.09,51.04c.28-.29.43-.69.41-1.09.02-.4-.13-.79-.41-1.08-.28-.28-.67-.43-1.06-.41-.78-.04-1.45.56-1.49,1.35v.14c-.02.41.13.81.42,1.1.28.28.67.43,1.07.41.39,0,.76-.14,1.03-.42,0,0,.03,0,.03,0Z"/>
    <path d="M112.33,47.79c.37.47.55,1.06.51,1.65v3.14h-1.34v-3c.02-.32-.08-.63-.28-.88-.21-.22-.51-.34-.81-.31-.56,0-1.08.29-1.38.76v3.39h-1.33v-5.24h1.36v.8c.43-.54,1.1-.85,1.79-.83.54-.04,1.08.15,1.48.52h0Z"/>
    <path class="cls-2" d="M29.39,13.77c-2.36,1.51-3.5,4.35-2.84,7.07,2.72-4,11-.39,13.72-9.6-1.54,1.21-3.46,1.84-5.42,1.76,4.5-1.87,7.08-8.49,3-13,1.18,5.33-5.61,5.8-10.93,6.79-10,1.89-11.65,11.16-7.11,15.89-.52-5.61,4-9,9.53-8.9h.05Z"/>
    <path class="cls-1" d="M23.52,26.49c-5.4.71-9.54,3.15-9.35,4.56l1.58,4.27h.09c-.03-.08-.06-.17-.07-.26-.23-1.75,3.49-3.69,8.31-4.32s8.91.27,9.14,2c0,.09,0,.18,0,.27h0l.48-4.53c-.15-1.38-4.78-2.7-10.18-1.99Z"/>
    <path class="cls-2" d="M33.66,28.23l11.64,12c3.58-8.22.46-15-5.58-17.83-5.35-2.47-11.7-.79-15.13,4,4.62-.42,8.47.61,9.07,1.83Z"/>
    <path class="cls-2" d="M24.4,33.17c2.59-.34,4.79.14,4.91,1.08,0,0-.06.64-.13,1.83,2.36-.82,3.94-2,4-3.06,0-.09,0-.18,0-.27-.23-1.75-4.32-2.66-9.14-2s-8.54,2.57-8.31,4.32c.01.09.04.18.07.26h-.09l-1.54-4.23c-.17-1.32,3.41-3.52,8.27-4.39-3.37-4.99-9.87-6.79-15.33-4.26-6.56,3-9.69,10.81-4.52,20,3.68,6.52,9.45,11.44,20.82,20.25l2.58-2c-1.4-8.52-3.42-16.92-6.05-25.14h0c-.13-1.01,1.87-2.05,4.46-2.39Z"/>
    <path class="cls-2" d="M39.72,22.4c-5.35-2.47-11.7-.79-15.13,4,4.62-.4,8.45.63,9.07,1.85h0c.04.08.08.16.09.25l-.48,4.53h0c0-.09,0-.18,0-.27-.23-1.75-4.32-2.66-9.14-2s-8.54,2.57-8.31,4.32c.01.09.04.18.07.26h-.09l-1.63-4.24c-.17-1.32,3.41-3.52,8.27-4.39-3.37-4.99-9.87-6.79-15.33-4.26-6.56,3-9.69,10.81-4.52,20,3.68,6.52,9.45,11.44,20.82,20.25l2.58-2c-1.4-8.52-3.42-16.92-6.05-25.14h0c-.13-.94,1.87-2,4.46-2.32s4.79.14,4.91,1.08c0,0-.06.64-.13,1.83h0c-.34,7.23-.19,14.46.44,21.67,7.41-6,11.69-10.16,14.63-15.37.39-.69.74-1.41,1.06-2.14h0c3.57-8.3.45-15.11-5.59-17.91Z"/>
    <path class="cls-2" d="M33.66,28.23l11.64,12c3.58-8.22.46-15-5.58-17.83-5.35-2.47-11.7-.79-15.13,4,4.62-.42,8.47.61,9.07,1.83Z"/>
    <path class="cls-2" d="M24.4,33.17c2.59-.34,4.79.14,4.91,1.08,0,0-.06.64-.13,1.83,2.36-.82,3.94-2,4-3.06,0-.09,0-.18,0-.27-.23-1.75-4.32-2.66-9.14-2s-8.54,2.57-8.31,4.32c.01.09.04.18.07.26h-.09l-1.54-4.23c-.17-1.32,3.41-3.52,8.27-4.39-3.37-4.99-9.87-6.79-15.33-4.26-6.56,3-9.69,10.81-4.52,20,3.68,6.52,9.45,11.44,20.82,20.25l2.58-2c-1.4-8.52-3.42-16.92-6.05-25.14h0c-.13-1.01,1.87-2.05,4.46-2.39Z"/>
    <path class="cls-3" d="M33.65,28.23c.04.08.08.16.09.25l-.48,4.53h0c-.1,1.1-1.68,2.24-4,3.06-.34,7.23-.19,14.46.44,21.67h0c7.41-6,11.69-10.16,14.63-15.37.39-.69.74-1.41,1.06-2.14l-11.74-12Z"/>
    <path d="M132.7,68.25c-.19.19-.5.2-.69,0-.1-.09-.15-.22-.15-.36s.06-.27.16-.36c.09-.09.21-.13.33-.13.13,0,.26.05.35.14.09.09.15.22.14.35,0,.13-.04.26-.14.35M132.06,67.61c-.07.08-.11.18-.11.29s.04.21.12.29c.07.08.17.12.28.12.23,0,.41-.18.41-.41h0c0-.11-.04-.21-.12-.29-.16-.16-.42-.16-.58,0h0M132.14,68.17v-.54h.26s.07-.01.11,0c.05.02.08.08.07.13,0,.03,0,.07,0,.1-.03.01-.06.01-.09,0h.08s.02.09,0,.13v.08h-.13v-.14h-.11v.19l-.19.05ZM132.4,67.73h-.12v.16h.13s0-.04,0-.06c0-.02,0-.05,0-.07"/>
  </g>
</svg>