<svg xmlns="http://www.w3.org/2000/svg" version="1.1" xmlns:xlink="http://www.w3.org/1999/xlink" width="512" height="512" x="0" y="0" viewBox="0 0 512 512" style="enable-background:new 0 0 512 512" xml:space="preserve" class=""><g><path d="M209.96 366.82c21.85-10.55 45.22-24.83 69.42-40.5 24.19-15.63 49.19-32.51 74.06-47.46 18.73-11.35 18.73-34.47 0-45.82-24.87-14.95-49.87-31.82-74.06-47.46-24.2-15.66-47.57-29.94-69.42-40.5-16.02-7.88-38.88 11.67-41.31 31.37-1.87 17.65-3.14 35.07-3.79 52.42 0 0-.34 14.19-.34 27.07s.34 27.07.34 27.07c.65 17.35 1.92 34.77 3.79 52.42 2.43 19.7 25.29 39.25 41.31 31.37z" fill="#000000" opacity="1" data-original="#000000" class=""></path><path d="M437.02 74.98C388.67 26.63 324.38 0 256 0 197.63 0 140.52 20.17 95.21 56.79c-.97.78-1.83 1.64-2.6 2.56a442.88 442.88 0 0 0-20.44-17.57c-9.04-7.05-26.36-5.7-29.68 4.06-4.61 13.24-8.33 28.61-11.81 44.89-3.5 16.27-6.81 33.37-10.86 49.63-3.02 12.28 6.43 21.73 18.71 18.71 16.26-4.05 33.36-7.37 49.63-10.86 16.28-3.49 31.66-7.2 44.89-11.81 9.76-3.33 11.11-20.65 4.06-29.68a455.736 455.736 0 0 0-17.7-20.59c39.08-31.47 86.31-48.11 136.61-48.11 58.23 0 112.97 22.68 154.14 63.85s63.85 95.91 63.85 154.14-22.67 112.97-63.85 154.14C368.99 451.32 314.25 474 256.02 474s-112.97-22.68-154.14-63.85-63.85-95.91-63.85-154.14c0-10.5-8.51-19.01-19.01-19.01S0 245.5 0 256c0 68.38 26.63 132.67 74.98 181.02S187.62 512 256 512s132.67-26.63 181.02-74.98S512 324.38 512 256s-26.63-132.67-74.98-181.02z" fill="#000000" opacity="1" data-original="#000000" class=""></path></g></svg>