<svg id="Layer_1" enable-background="new 0 0 100 100" viewBox="0 0 100 100" xmlns="http://www.w3.org/2000/svg"><path d="m96.2581024 76.5555725-26.5555801-26.5555725 26.5555801-26.5555763c1.6558609-1.6558666 1.6558609-4.3405552 0-5.9964199l-13.7061081-13.7061045c-1.6558609-1.6558657-4.3405533-1.6558657-5.9964218 0l-26.5555725 26.5555765-26.5555763-26.5555765c-1.6558647-1.6558657-4.3405533-1.6558657-5.9964199 0l-13.7061036 13.7061045c-1.6558657 1.6558647-1.6558657 4.3405533 0 5.9964199l26.5555756 26.5555763-26.5555756 26.5555725c-1.6558657 1.6558685-1.6558657 4.3405609 0 5.9964218l13.7061033 13.7061081c1.6558666 1.6558609 4.3405552 1.6558609 5.9964199 0l26.5555766-26.5555801 26.5555725 26.5555801c1.6558685 1.6558609 4.3405609 1.6558609 5.9964218 0l13.7061081-13.7061081c1.6558609-1.6558609 1.6558609-4.3405533 0-5.9964218z"/></svg>